<svg width="1174" height="482" xmlns="http://www.w3.org/2000/svg">
 <style type="text/css">.st0{fill-rule:evenodd;clip-rule:evenodd;fill:#0078B5;}
	.st1{fill:#0078B5;}
	.st2{fill-rule:evenodd;clip-rule:evenodd;fill:url(#SVGID_1_);}
	.st3{fill-rule:evenodd;clip-rule:evenodd;fill:url(#SVGID_2_);}
	.st4{fill-rule:evenodd;clip-rule:evenodd;fill:#FFFFFF;}
	.st5{fill:#FFFFFF;}
	.st6{fill-rule:evenodd;clip-rule:evenodd;fill:url(#SVGID_3_);}
	.st7{fill-rule:evenodd;clip-rule:evenodd;fill:url(#SVGID_4_);}</style>

 <g>
  <title>background</title>
  <rect fill="none" id="canvas_background" height="484" width="1176" y="-1" x="-1"/>
 </g>
 <g>
  <title>Layer 1</title>
  <path id="svg_1" d="m228.5,18.1c-116.1,0 -210.2,94.1 -210.2,210.2c0,115.4 94.1,209.5 210.2,209.5l735.1,0c116.1,0 210.2,-94.1 210.2,-209.5c0,-116.1 -94.1,-210.2 -210.2,-210.2l-735.1,0zm0,28l735.1,0c101.4,0 181.6,80.9 181.6,182.3c0,100.7 -80.1,181.6 -181.6,181.6l-735.1,0c-101.4,0 -182.3,-80.9 -182.3,-181.6c0,-101.5 80.8,-182.3 182.3,-182.3l0,0z" class="st0"/>
  <path id="svg_2" d="m328.3,317.3l0,-121.3l35.3,0l0,18.4c3.7,-6.6 8.8,-11 14.7,-14c5.9,-2.9 14,-4.4 23.5,-4.4l4.4,0l0,36.8l-1.5,0c-14,0 -24.3,2.9 -30.1,9.6c-5.9,5.9 -8.8,15.4 -8.8,29.4l0,45.6l-37.5,0l0,-0.1z" class="st1"/>
  <path id="svg_3" d="m457.6,256.3c0,6.6 1.5,12.5 5.9,17.6c4.4,5.1 9.6,7.4 15.4,7.4c6.6,0 11.8,-2.2 16.2,-7.4s6.6,-11 6.6,-17.6c0,-6.6 -2.2,-12.5 -6.6,-17.6c-4.4,-4.4 -9.6,-7.4 -16.2,-7.4c-5.9,0 -11,2.9 -15.4,7.4c-4.4,5.1 -5.9,11 -5.9,17.6l0,0zm-39.7,0c0,-8.1 1.5,-16.2 4.4,-23.5c3.7,-7.4 8.1,-14.7 14,-20.6c5.9,-5.9 12.5,-10.3 19.8,-14c7.4,-2.9 14.7,-4.4 22.8,-4.4c8.8,0 16.2,1.5 24.3,4.4c7.4,3.7 14,8.1 19.8,14c5.1,5.9 9.6,12.5 13.2,20.6c2.9,7.4 4.4,15.4 4.4,23.5c0,8.8 -1.5,16.9 -4.4,24.3c-3.7,8.1 -8.1,14.7 -13.2,20.6c-5.9,5.9 -12.5,10.3 -19.8,14c-8.1,2.9 -15.4,4.4 -24.3,4.4c-8.1,0 -15.4,-1.5 -22.8,-4.4c-7.4,-3.7 -14,-8.1 -19.8,-14c-5.9,-5.9 -10.3,-13.2 -14,-20.6c-2.9,-7.4 -4.4,-15.5 -4.4,-24.3l0,0z" class="st1"/>
  <path id="svg_4" d="m592.1,256.3c0,6.6 2.2,12.5 6.6,17.6c4.4,5.1 9.6,7.4 15.4,7.4c5.9,0 11.8,-2.2 16.2,-7.4s5.9,-11 5.9,-17.6c0,-6.6 -1.5,-12.5 -5.9,-17.6c-4.4,-4.4 -10.3,-7.4 -16.2,-7.4c-5.9,0 -11,2.9 -15.4,7.4c-4.3,5.1 -6.6,11 -6.6,17.6l0,0zm-38.9,0c0,-8.1 1.5,-16.2 4.4,-23.5c2.9,-7.4 7.4,-14.7 13.2,-20.6c5.9,-5.9 12.5,-10.3 19.8,-14c7.4,-2.9 15.4,-4.4 23.5,-4.4c8.1,0 16.2,1.5 23.5,4.4c7.4,3.7 14,8.1 19.8,14c5.9,5.9 10.3,12.5 13.2,20.6c2.9,7.4 4.4,15.4 4.4,23.5c0,8.8 -1.5,16.9 -4.4,24.3c-2.9,8.1 -7.4,14.7 -13.2,20.6c-5.9,5.9 -12.5,10.3 -19.8,14c-7.4,2.9 -15.4,4.4 -23.5,4.4c-8.1,0 -16.2,-1.5 -23.5,-4.4c-7.4,-3.7 -14,-8.1 -19.8,-14c-5.9,-5.9 -10.3,-13.2 -13.2,-20.6c-2.9,-7.4 -4.4,-15.5 -4.4,-24.3l0,0z" class="st1"/>
  <path id="svg_5" d="m692.9,317.3l0,-171.3l38.2,0l0,88.9l7.4,0c3.7,0 6.6,-1.5 9.6,-3.7c2.2,-2.9 5.1,-7.4 8.1,-14.7l7.4,-20.6l40.4,0l-14,36.8c-1.5,3.7 -3.7,6.6 -6.6,8.8c-2.2,2.9 -5.9,4.4 -9.6,5.9c9.6,2.2 16.9,5.9 20.6,12.5c4.4,5.9 6.6,14 6.6,25l0,32.3l-38.2,0l0,-27.2c0,-7.4 -1.5,-11.8 -4.4,-14.7c-2.9,-3.7 -7.4,-5.1 -13.2,-5.1l-14,0l0,47l-38.3,0l0,0.1z" class="st1"/>
  <rect id="svg_6" height="171.3" width="39" class="st1" y="146" x="820"/>
  <path id="svg_7" d="m878.8,162.9c0,-5.9 2.2,-11 6.6,-15.4c4.4,-4.4 9.6,-6.6 15.4,-6.6c6.6,0 11.8,2.2 16.2,6.6c3.7,4.4 5.9,9.6 5.9,15.4c0,6.6 -2.2,11.8 -5.9,16.2c-4.4,4.4 -9.6,6.6 -16.2,6.6c-5.9,0 -11,-2.2 -15.4,-6.6c-4.4,-4.4 -6.6,-9.5 -6.6,-16.2l0,0zm3,154.4l0,-121.3l39,0l0,121.3l-39,0z" class="st1"/>
  <path id="svg_8" d="m1014.8,317.3l0,-67.6c0,-5.9 -1.5,-10.3 -5.1,-14c-2.9,-2.9 -7.4,-5.1 -12.5,-5.1c-5.1,0 -9.6,2.2 -13.2,5.1c-2.9,3.7 -4.4,8.1 -4.4,14l0,67.6l-38.2,0l0,-61.7c0,-18.4 5.1,-33.8 15.4,-44.8c10.3,-11.8 23.5,-16.9 40.4,-16.9c8.8,0 17.6,2.2 25.7,5.9c7.4,4.4 14.7,9.6 19.8,16.9c3.7,5.1 5.9,11 7.4,16.9c1.5,5.9 2.9,13.2 2.9,22.1l0,61.7l-38.2,0l0,-0.1z" class="st1"/>
  <g id="svg_9">
   <path id="svg_10" d="m185.9,110.6l0,2.7l6.8,0l0,-2.7l-6.8,0zm9.9,5.2l0,5.6l6.8,0l0,-5.6l-6.8,0zm-9.9,2l0,10l6.8,0l0,-10l-6.8,0zm20.5,5.2l0,2.8l6.8,0l0,-2.8l-6.8,0zm-29.6,2.2l0,2.5l6.8,0l0,-2.5l-6.8,0zm19,1.6l0,9.1l6.8,0l0,-9.1l-6.8,0zm10.6,3.3l0,9.7l6.8,0l0,-9.7l-6.8,0zm-29.6,0.8l0,7l6.8,0l0,-7l-6.8,0zm9.1,2.1l0,20l-2.3,0l0,-12.5l-6.8,0l0,15.5l0,32.3l-11.7,0l0,11.5l-3.5,0l0,6.8l3.5,0l0,2.9l-9.2,0l0,6.9l9.2,0l0,1.4l-1.8,0l0,6.8l13.4,0l0,28.1c0,35.5 29.1,64.5 64.5,64.5c35.4,0 64.5,-29.1 64.5,-64.5c0,-35.5 -29.2,-64.5 -64.5,-64.5l-28.1,0l0,-35.4l0,-9.8l-6.8,0l0,9.8l-3.7,0l0,-13.4l-6.8,0l0,13.4l-3.1,0l0,-20l-6.8,0l0,0.2zm-41.3,55.3l0,6.9l4.5,0l0,-6.9l-4.5,0zm9,0l0,6.9l9,0l0,-6.9l-9,0zm-14.6,11.5l0,6.8l5.3,0l0,-6.8l-5.3,0zm10.7,0l0,6.8l8.8,0l0,-6.8l-8.8,0zm-9.3,9.7l0,6.9l10.9,0l0,-6.9l-10.9,0zm7.8,8.3l0,6.8l3.1,0l0,-6.8l-3.1,0zm6.3,0l0,6.8l6.4,0l0,-6.8l-6.4,0zm58.7,6.9l28.1,0c15.8,0 28,12.3 28,28.1c0,15.9 -12.2,28.1 -28,28.1c-15.9,0 -28.1,-12.2 -28.1,-28.1l0,-28.1z" class="st0"/>
   <rect id="svg_11" height="36.4" width="11.7" class="st2" y="188.3" x="165.1"/>
   <rect id="svg_12" height="36.4" width="36.4" class="st3" y="188.3" x="213.2"/>
  </g>
 </g>
</svg>